# Blender 5.0.0
# www.blender.org
mtllib stagev0.mtl
o Cylinder
v 0.000000 -0.110632 -13.860001
v 2.703952 -0.110632 -13.593685
v 5.303993 -0.110632 -12.804971
v 7.700204 -0.110632 -11.524170
v 9.800501 -0.110632 -9.800501
v 11.524170 -0.110632 -7.700204
v 12.804971 -0.110631 -5.303993
v 13.593685 -0.110631 -2.703952
v 13.860001 -0.110631 0.000000
v 13.593685 -0.110631 2.703952
v 12.804971 -0.110631 5.303993
v 11.524170 -0.110630 7.700204
v 9.800501 -0.110630 9.800501
v 7.700204 -0.110630 11.524170
v 5.303993 -0.110630 12.804971
v 2.703952 -0.110630 13.593685
v 0.000000 -0.110630 13.860001
v -2.703952 -0.110630 13.593685
v -5.303993 -0.110630 12.804971
v -7.700204 -0.110630 11.524170
v -9.800501 -0.110630 9.800501
v -11.524170 -0.110630 7.700204
v -12.804971 -0.110631 5.303993
v -13.593685 -0.110631 2.703952
v -13.860001 -0.110631 0.000000
v -13.593685 -0.110631 -2.703952
v -12.804971 -0.110631 -5.303993
v -11.524170 -0.110632 -7.700204
v -9.800501 -0.110632 -9.800501
v -7.700204 -0.110632 -11.524170
v -5.303993 -0.110632 -12.804971
v -2.703952 -0.110632 -13.593685
v 0.000000 5.654629 -13.091753
v 0.000000 4.890080 -13.860001
v 0.000000 5.552199 -13.475876
v 0.000000 5.272355 -13.757074
v 2.554074 5.654629 -12.840199
v 2.703952 4.890080 -13.593685
v 2.629013 5.552199 -13.216942
v 2.683872 5.272355 -13.492738
v 5.009998 5.654629 -12.095201
v 5.303993 4.890080 -12.804971
v 5.156996 5.552199 -12.450087
v 5.264606 5.272355 -12.709881
v 7.273386 5.654629 -10.885396
v 7.700204 4.890080 -11.524170
v 7.486795 5.552199 -11.204782
v 7.643021 5.272355 -11.438589
v 9.257267 5.654630 -9.257267
v 9.800501 4.890080 -9.800501
v 9.528884 5.552199 -9.528884
v 9.727722 5.272355 -9.727722
v 10.885396 5.654630 -7.273386
v 11.524170 4.890080 -7.700204
v 11.204782 5.552199 -7.486795
v 11.438589 5.272356 -7.643022
v 12.095201 5.654630 -5.009998
v 12.804971 4.890080 -5.303994
v 12.450087 5.552199 -5.156996
v 12.709881 5.272356 -5.264606
v 12.840199 5.654630 -2.554075
v 13.593685 4.890081 -2.703953
v 13.216942 5.552200 -2.629014
v 13.492738 5.272356 -2.683872
v 13.091753 5.654630 -0.000000
v 13.860001 4.890081 -0.000000
v 13.475876 5.552200 -0.000000
v 13.757074 5.272356 -0.000000
v 12.840199 5.654630 2.554074
v 13.593685 4.890081 2.703952
v 13.216942 5.552200 2.629013
v 13.492738 5.272356 2.683872
v 12.095201 5.654631 5.009997
v 12.804971 4.890081 5.303993
v 12.450087 5.552200 5.156995
v 12.709881 5.272357 5.264606
v 10.885396 5.654631 7.273386
v 11.524170 4.890081 7.700203
v 11.204782 5.552200 7.486794
v 11.438589 5.272357 7.643021
v 9.257267 5.654631 9.257267
v 9.800501 4.890082 9.800501
v 9.528884 5.552201 9.528884
v 9.727722 5.272357 9.727722
v 7.273386 5.654631 10.885396
v 7.700204 4.890082 11.524170
v 7.486795 5.552201 11.204782
v 7.643021 5.272357 11.438589
v 5.009998 5.654631 12.095201
v 5.303993 4.890082 12.804971
v 5.156996 5.552201 12.450087
v 5.264606 5.272357 12.709881
v 2.554074 5.654631 12.840199
v 2.703952 4.890082 13.593685
v 2.629013 5.552201 13.216942
v 2.683872 5.272357 13.492738
v 0.000000 5.654631 13.091753
v 0.000000 4.890082 13.860001
v 0.000000 5.552201 13.475876
v 0.000000 5.272357 13.757074
v -2.554074 5.654631 12.840199
v -2.703952 4.890082 13.593685
v -2.629013 5.552201 13.216942
v -2.683872 5.272357 13.492738
v -5.009998 5.654631 12.095201
v -5.303993 4.890082 12.804971
v -5.156996 5.552201 12.450087
v -5.264606 5.272357 12.709881
v -7.273386 5.654631 10.885396
v -7.700204 4.890082 11.524170
v -7.486795 5.552201 11.204782
v -7.643021 5.272357 11.438589
v -9.257267 5.654631 9.257267
v -9.800501 4.890082 9.800501
v -9.528884 5.552201 9.528884
v -9.727722 5.272357 9.727722
v -10.885396 5.654631 7.273386
v -11.524170 4.890081 7.700203
v -11.204782 5.552200 7.486794
v -11.438589 5.272357 7.643021
v -12.095201 5.654631 5.009997
v -12.804971 4.890081 5.303993
v -12.450087 5.552200 5.156995
v -12.709881 5.272357 5.264606
v -12.840199 5.654630 2.554074
v -13.593685 4.890081 2.703952
v -13.216942 5.552200 2.629013
v -13.492738 5.272356 2.683872
v -13.091753 5.654630 -0.000000
v -13.860001 4.890081 -0.000000
v -13.475876 5.552200 -0.000000
v -13.757074 5.272356 -0.000000
v -12.840199 5.654630 -2.554075
v -13.593685 4.890081 -2.703953
v -13.216942 5.552200 -2.629014
v -13.492738 5.272356 -2.683872
v -12.095201 5.654630 -5.009998
v -12.804971 4.890080 -5.303994
v -12.450087 5.552199 -5.156996
v -12.709881 5.272356 -5.264606
v -10.885396 5.654630 -7.273386
v -11.524170 4.890080 -7.700204
v -11.204782 5.552199 -7.486795
v -11.438589 5.272356 -7.643022
v -9.257267 5.654630 -9.257267
v -9.800501 4.890080 -9.800501
v -9.528884 5.552199 -9.528884
v -9.727722 5.272355 -9.727722
v -7.273386 5.654629 -10.885396
v -7.700204 4.890080 -11.524170
v -7.486795 5.552199 -11.204782
v -7.643021 5.272355 -11.438589
v -5.009998 5.654629 -12.095201
v -5.303993 4.890080 -12.804971
v -5.156996 5.552199 -12.450087
v -5.264606 5.272355 -12.709881
v -2.554074 5.654629 -12.840199
v -2.703952 4.890080 -13.593685
v -2.629013 5.552199 -13.216942
v -2.683872 5.272355 -13.492738
v -1.000000 0.000000 1.000000
v 1.000000 0.000000 1.000000
v -1.000000 -0.000000 -1.000000
v 1.000000 -0.000000 -1.000000
v -67.076149 0.000005 67.076149
v 67.076149 0.000005 67.076149
v -67.076149 -0.000005 -67.076149
v 67.076149 -0.000005 -67.076149
v -67.076149 55.805561 67.076141
v 67.076149 55.805561 67.076141
v -67.076149 55.805553 -67.076157
v 67.076149 55.805553 -67.076157
vn -0.0000 -1.0000 -0.0000
vn 0.0947 0.2588 -0.9613
vn 0.0693 0.7071 -0.7037
vn 0.0254 0.9659 -0.2576
vn 0.2804 0.2588 -0.9243
vn 0.2053 0.7071 -0.6767
vn 0.0751 0.9659 -0.2477
vn 0.4553 0.2588 -0.8519
vn 0.3333 0.7071 -0.6236
vn 0.1220 0.9659 -0.2283
vn 0.6128 0.2588 -0.7467
vn 0.4486 0.7071 -0.5466
vn 0.1642 0.9659 -0.2001
vn 0.7467 0.2588 -0.6128
vn 0.5466 0.7071 -0.4486
vn 0.2001 0.9659 -0.1642
vn 0.8519 0.2588 -0.4553
vn 0.6236 0.7071 -0.3333
vn 0.2283 0.9659 -0.1220
vn 0.9243 0.2588 -0.2804
vn 0.6767 0.7071 -0.2053
vn 0.2477 0.9659 -0.0751
vn 0.9613 0.2588 -0.0947
vn 0.7037 0.7071 -0.0693
vn 0.2576 0.9659 -0.0254
vn 0.9613 0.2588 0.0947
vn 0.7037 0.7071 0.0693
vn 0.2576 0.9659 0.0254
vn 0.9243 0.2588 0.2804
vn 0.6767 0.7071 0.2053
vn 0.2477 0.9659 0.0751
vn 0.8519 0.2588 0.4553
vn 0.6236 0.7071 0.3333
vn 0.2283 0.9659 0.1220
vn 0.7467 0.2588 0.6128
vn 0.5466 0.7071 0.4486
vn 0.2001 0.9659 0.1642
vn 0.6128 0.2588 0.7467
vn 0.4486 0.7071 0.5466
vn 0.1642 0.9659 0.2001
vn 0.4553 0.2588 0.8519
vn 0.3333 0.7071 0.6236
vn 0.1220 0.9659 0.2283
vn 0.2804 0.2588 0.9243
vn 0.2053 0.7071 0.6767
vn 0.0751 0.9659 0.2477
vn 0.0947 0.2588 0.9613
vn 0.0693 0.7071 0.7037
vn 0.0254 0.9659 0.2576
vn -0.0947 0.2588 0.9613
vn -0.0693 0.7071 0.7037
vn -0.0254 0.9659 0.2576
vn -0.2804 0.2588 0.9243
vn -0.2053 0.7071 0.6767
vn -0.0751 0.9659 0.2477
vn -0.4553 0.2588 0.8519
vn -0.3333 0.7071 0.6236
vn -0.1220 0.9659 0.2283
vn -0.6128 0.2588 0.7467
vn -0.4486 0.7071 0.5466
vn -0.1642 0.9659 0.2001
vn -0.7467 0.2588 0.6128
vn -0.5466 0.7071 0.4486
vn -0.2001 0.9659 0.1642
vn -0.8519 0.2588 0.4553
vn -0.6236 0.7071 0.3333
vn -0.2283 0.9659 0.1220
vn -0.9243 0.2588 0.2804
vn -0.6767 0.7071 0.2053
vn -0.2477 0.9659 0.0751
vn -0.9613 0.2588 0.0947
vn -0.7037 0.7071 0.0693
vn -0.2576 0.9659 0.0254
vn -0.9613 0.2588 -0.0947
vn -0.7037 0.7071 -0.0693
vn -0.2576 0.9659 -0.0254
vn -0.9243 0.2588 -0.2804
vn -0.6767 0.7071 -0.2053
vn -0.2477 0.9659 -0.0751
vn -0.8519 0.2588 -0.4553
vn -0.6236 0.7071 -0.3333
vn -0.2283 0.9659 -0.1220
vn -0.7467 0.2588 -0.6128
vn -0.5466 0.7071 -0.4486
vn -0.2001 0.9659 -0.1642
vn -0.6128 0.2588 -0.7467
vn -0.4486 0.7071 -0.5466
vn -0.1642 0.9659 -0.2001
vn -0.4553 0.2588 -0.8519
vn -0.3333 0.7071 -0.6236
vn -0.1220 0.9659 -0.2283
vn -0.2804 0.2588 -0.9243
vn -0.2053 0.7071 -0.6767
vn -0.0751 0.9659 -0.2477
vn -0.0947 0.2588 -0.9613
vn -0.0693 0.7071 -0.7037
vn -0.0254 0.9659 -0.2576
vn -0.0000 1.0000 -0.0000
vn 0.0980 -0.0000 -0.9952
vn -0.0980 -0.0000 -0.9952
vn 0.2903 -0.0000 -0.9569
vn 0.4714 -0.0000 -0.8819
vn 0.6344 -0.0000 -0.7730
vn 0.7730 -0.0000 -0.6344
vn 0.8819 -0.0000 -0.4714
vn 0.9569 -0.0000 -0.2903
vn 0.9952 -0.0000 -0.0980
vn 0.9952 -0.0000 0.0980
vn 0.9569 -0.0000 0.2903
vn 0.8819 -0.0000 0.4714
vn 0.7730 -0.0000 0.6344
vn 0.6344 -0.0000 0.7730
vn 0.4714 -0.0000 0.8819
vn 0.2903 -0.0000 0.9569
vn 0.0980 -0.0000 0.9952
vn -0.0980 -0.0000 0.9952
vn -0.2903 -0.0000 0.9569
vn -0.4714 -0.0000 0.8819
vn -0.6344 -0.0000 0.7730
vn -0.7730 -0.0000 0.6344
vn -0.8819 -0.0000 0.4714
vn -0.9569 -0.0000 0.2903
vn -0.9952 -0.0000 0.0980
vn -0.9952 -0.0000 -0.0980
vn -0.9569 -0.0000 -0.2903
vn -0.8819 -0.0000 -0.4714
vn -0.7730 -0.0000 -0.6344
vn -0.6344 -0.0000 -0.7730
vn -0.4714 -0.0000 -0.8819
vn -0.2903 -0.0000 -0.9569
vn -0.0000 -0.0000 1.0000
vn -1.0000 -0.0000 -0.0000
vn -0.0000 -0.0000 -1.0000
vt 0.796822 0.014612
vt 0.514612 0.203178
vt 0.703178 0.485388
vt 1.000000 0.933694
vt 0.968750 1.000000
vt 0.968750 0.933693
vt 0.250000 0.489983
vt 0.295524 0.478865
vt 0.296818 0.485372
vt 0.250000 0.476697
vt 0.294226 0.472341
vt 0.937500 0.933693
vt 0.937500 1.000000
vt 0.341837 0.471715
vt 0.339299 0.465586
vt 0.336753 0.459441
vt 0.906250 0.933694
vt 0.906250 1.000000
vt 0.383327 0.449538
vt 0.379641 0.444022
vt 0.375946 0.438492
vt 0.875000 0.933694
vt 0.875000 1.000000
vt 0.415002 0.415002
vt 0.419694 0.419694
vt 0.410299 0.410299
vt 0.843750 1.000000
vt 0.843750 0.933693
vt 0.449538 0.383327
vt 0.444022 0.379641
vt 0.438492 0.375946
vt 0.812500 1.000000
vt 0.812500 0.933694
vt 0.471715 0.341837
vt 0.465586 0.339299
vt 0.459441 0.336753
vt 0.781250 1.000000
vt 0.781250 0.933694
vt 0.478865 0.295524
vt 0.485372 0.296818
vt 0.472341 0.294226
vt 0.750000 0.933693
vt 0.750000 1.000000
vt 0.483349 0.250000
vt 0.489983 0.250000
vt 0.476697 0.250000
vt 0.718750 1.000000
vt 0.718750 0.933694
vt 0.485372 0.203182
vt 0.478865 0.204476
vt 0.472341 0.205774
vt 0.687500 1.000000
vt 0.687500 0.933694
vt 0.465586 0.160701
vt 0.471715 0.158163
vt 0.459441 0.163247
vt 0.656250 0.933693
vt 0.656250 1.000000
vt 0.449538 0.116673
vt 0.444022 0.120359
vt 0.438492 0.124054
vt 0.625000 0.933694
vt 0.625000 1.000000
vt 0.415002 0.084998
vt 0.419694 0.080307
vt 0.410299 0.089701
vt 0.593750 0.933694
vt 0.593750 1.000000
vt 0.383327 0.050462
vt 0.379641 0.055978
vt 0.375946 0.061508
vt 0.562500 1.000000
vt 0.562500 0.933694
vt 0.339299 0.034414
vt 0.341837 0.028285
vt 0.336753 0.040559
vt 0.531250 1.000000
vt 0.531250 0.933694
vt 0.296818 0.014628
vt 0.295524 0.021135
vt 0.294226 0.027659
vt 0.500000 1.000000
vt 0.500000 0.933694
vt 0.250000 0.016652
vt 0.250000 0.010017
vt 0.250000 0.023303
vt 0.468750 1.000000
vt 0.468750 0.933694
vt 0.204476 0.021135
vt 0.203182 0.014628
vt 0.205774 0.027659
vt 0.437500 0.933693
vt 0.437500 1.000000
vt 0.158163 0.028285
vt 0.160701 0.034414
vt 0.163247 0.040559
vt 0.406250 0.933694
vt 0.406250 1.000000
vt 0.116673 0.050462
vt 0.120359 0.055978
vt 0.124054 0.061508
vt 0.375000 0.933694
vt 0.375000 1.000000
vt 0.084998 0.084998
vt 0.080306 0.080306
vt 0.089701 0.089701
vt 0.343750 1.000000
vt 0.343750 0.933693
vt 0.050462 0.116673
vt 0.055978 0.120359
vt 0.061508 0.124054
vt 0.312500 1.000000
vt 0.312500 0.933694
vt 0.028285 0.158163
vt 0.034414 0.160701
vt 0.040559 0.163247
vt 0.281250 1.000000
vt 0.281250 0.933694
vt 0.021135 0.204476
vt 0.014628 0.203182
vt 0.027659 0.205774
vt 0.250000 0.933693
vt 0.250000 1.000000
vt 0.016652 0.250000
vt 0.010017 0.250000
vt 0.023303 0.250000
vt 0.218750 1.000000
vt 0.218750 0.933694
vt 0.014628 0.296818
vt 0.021135 0.295524
vt 0.027659 0.294226
vt 0.187500 1.000000
vt 0.187500 0.933694
vt 0.034414 0.339299
vt 0.028285 0.341837
vt 0.040559 0.336753
vt 0.156250 0.933693
vt 0.156250 1.000000
vt 0.050462 0.383327
vt 0.055978 0.379642
vt 0.061508 0.375946
vt 0.125000 0.933694
vt 0.125000 1.000000
vt 0.084998 0.415002
vt 0.080306 0.419694
vt 0.089701 0.410299
vt 0.093750 0.933694
vt 0.093750 1.000000
vt 0.116673 0.449538
vt 0.120359 0.444022
vt 0.124054 0.438492
vt 0.062500 1.000000
vt 0.062500 0.933694
vt 0.160701 0.465586
vt 0.158163 0.471715
vt 0.163247 0.459441
vt 0.031250 1.000000
vt 0.031250 0.933693
vt 0.203182 0.485372
vt 0.204476 0.478865
vt 0.205774 0.472341
vt 0.000116 1.000000
vt 0.000000 0.933694
vt 0.250000 0.483349
vt 0.968750 0.500000
vt 1.000000 0.500000
vt 0.000000 0.500000
vt 0.031250 0.500000
vt 0.937500 0.500000
vt 0.906250 0.500000
vt 0.875000 0.500000
vt 0.843750 0.500000
vt 0.812500 0.500000
vt 0.781250 0.500000
vt 0.750000 0.500000
vt 0.718750 0.500000
vt 0.687500 0.500000
vt 0.656250 0.500000
vt 0.625000 0.500000
vt 0.593750 0.500000
vt 0.562500 0.500000
vt 0.531250 0.500000
vt 0.500000 0.500000
vt 0.468750 0.500000
vt 0.437500 0.500000
vt 0.406250 0.500000
vt 0.375000 0.500000
vt 0.343750 0.500000
vt 0.312500 0.500000
vt 0.281250 0.500000
vt 0.250000 0.500000
vt 0.218750 0.500000
vt 0.187500 0.500000
vt 0.156250 0.500000
vt 0.125000 0.500000
vt 0.093750 0.500000
vt 0.062500 0.500000
vt 1.000000 0.000000
vt 0.000000 1.000000
vt 0.000000 0.000000
vt 1.000000 1.000000
vt 0.750000 0.490000
vt 0.796822 0.485388
vt 0.841844 0.471731
vt 0.883337 0.449553
vt 0.919706 0.419706
vt 0.949553 0.383337
vt 0.971731 0.341844
vt 0.985388 0.296822
vt 0.990000 0.250000
vt 0.985388 0.203178
vt 0.971731 0.158156
vt 0.949553 0.116663
vt 0.919706 0.080294
vt 0.883337 0.050447
vt 0.841844 0.028269
vt 0.750000 0.010000
vt 0.703178 0.014612
vt 0.658156 0.028269
vt 0.616663 0.050447
vt 0.580294 0.080294
vt 0.550447 0.116663
vt 0.528269 0.158156
vt 0.510000 0.250000
vt 0.514612 0.296822
vt 0.528269 0.341844
vt 0.550447 0.383337
vt 0.580294 0.419706
vt 0.616663 0.449553
vt 0.658156 0.471731
vt 0.999884 1.000000
s 1
f 16/1/1 24/2/1 32/3/1
f 34/4/2 40/5/2 38/6/2
f 36/7/3 39/8/3 40/9/3
f 39/8/4 33/10/4 37/11/4
f 42/12/5 40/5/5 44/13/5
f 44/14/6 39/8/6 43/15/6
f 43/15/7 37/11/7 41/16/7
f 46/17/8 44/13/8 48/18/8
f 48/19/9 43/15/9 47/20/9
f 43/15/10 45/21/10 47/20/10
f 50/22/11 48/18/11 52/23/11
f 48/19/12 51/24/12 52/25/12
f 47/20/13 49/26/13 51/24/13
f 50/22/14 56/27/14 54/28/14
f 56/29/15 51/24/15 55/30/15
f 55/30/16 49/26/16 53/31/16
f 54/28/17 60/32/17 58/33/17
f 60/34/18 55/30/18 59/35/18
f 59/35/19 53/31/19 57/36/19
f 58/33/20 64/37/20 62/38/20
f 60/34/21 63/39/21 64/40/21
f 59/35/22 61/41/22 63/39/22
f 66/42/23 64/37/23 68/43/23
f 64/40/24 67/44/24 68/45/24
f 67/44/25 61/41/25 65/46/25
f 66/42/26 72/47/26 70/48/26
f 72/49/27 67/44/27 71/50/27
f 67/44/28 69/51/28 71/50/28
f 70/48/29 76/52/29 74/53/29
f 72/49/30 75/54/30 76/55/30
f 75/54/31 69/51/31 73/56/31
f 78/57/32 76/52/32 80/58/32
f 80/59/33 75/54/33 79/60/33
f 75/54/34 77/61/34 79/60/34
f 82/62/35 80/58/35 84/63/35
f 80/59/36 83/64/36 84/65/36
f 79/60/37 81/66/37 83/64/37
f 86/67/38 84/63/38 88/68/38
f 88/69/39 83/64/39 87/70/39
f 87/70/40 81/66/40 85/71/40
f 86/67/41 92/72/41 90/73/41
f 88/69/42 91/74/42 92/75/42
f 91/74/43 85/71/43 89/76/43
f 90/73/44 96/77/44 94/78/44
f 96/79/45 91/74/45 95/80/45
f 91/74/46 93/81/46 95/80/46
f 94/78/47 100/82/47 98/83/47
f 96/79/48 99/84/48 100/85/48
f 95/80/49 97/86/49 99/84/49
f 98/83/50 104/87/50 102/88/50
f 100/85/51 103/89/51 104/90/51
f 103/89/52 97/86/52 101/91/52
f 106/92/53 104/87/53 108/93/53
f 108/94/54 103/89/54 107/95/54
f 107/95/55 101/91/55 105/96/55
f 110/97/56 108/93/56 112/98/56
f 112/99/57 107/95/57 111/100/57
f 107/95/58 109/101/58 111/100/58
f 114/102/59 112/98/59 116/103/59
f 112/99/60 115/104/60 116/105/60
f 111/100/61 113/106/61 115/104/61
f 114/102/62 120/107/62 118/108/62
f 120/109/63 115/104/63 119/110/63
f 119/110/64 113/106/64 117/111/64
f 118/108/65 124/112/65 122/113/65
f 124/114/66 119/110/66 123/115/66
f 123/115/67 117/111/67 121/116/67
f 122/113/68 128/117/68 126/118/68
f 124/114/69 127/119/69 128/120/69
f 123/115/70 125/121/70 127/119/70
f 130/122/71 128/117/71 132/123/71
f 128/120/72 131/124/72 132/125/72
f 131/124/73 125/121/73 129/126/73
f 130/122/74 136/127/74 134/128/74
f 136/129/75 131/124/75 135/130/75
f 131/124/76 133/131/76 135/130/76
f 134/128/77 140/132/77 138/133/77
f 136/129/78 139/134/78 140/135/78
f 139/134/79 133/131/79 137/136/79
f 142/137/80 140/132/80 144/138/80
f 144/139/81 139/134/81 143/140/81
f 139/134/82 141/141/82 143/140/82
f 146/142/83 144/138/83 148/143/83
f 144/139/84 147/144/84 148/145/84
f 143/140/85 145/146/85 147/144/85
f 150/147/86 148/143/86 152/148/86
f 152/149/87 147/144/87 151/150/87
f 151/150/88 145/146/88 149/151/88
f 150/147/89 156/152/89 154/153/89
f 152/149/90 155/154/90 156/155/90
f 155/154/91 149/151/91 153/156/91
f 154/153/92 160/157/92 158/158/92
f 160/159/93 155/154/93 159/160/93
f 155/154/94 157/161/94 159/160/94
f 158/158/95 36/162/95 34/163/95
f 160/159/96 35/164/96 36/7/96
f 159/160/97 33/10/97 35/164/97
f 105/96/98 73/56/98 41/16/98
f 34/4/99 2/165/99 1/166/99
f 158/158/100 1/167/100 32/168/100
f 38/6/101 3/169/101 2/165/101
f 42/12/102 4/170/102 3/169/102
f 46/17/103 5/171/103 4/170/103
f 50/22/104 6/172/104 5/171/104
f 54/28/105 7/173/105 6/172/105
f 58/33/106 8/174/106 7/173/106
f 62/38/107 9/175/107 8/174/107
f 66/42/108 10/176/108 9/175/108
f 70/48/109 11/177/109 10/176/109
f 74/53/110 12/178/110 11/177/110
f 78/57/111 13/179/111 12/178/111
f 82/62/112 14/180/112 13/179/112
f 86/67/113 15/181/113 14/180/113
f 90/73/114 16/182/114 15/181/114
f 94/78/115 17/183/115 16/182/115
f 98/83/116 18/184/116 17/183/116
f 102/88/117 19/185/117 18/184/117
f 106/92/118 20/186/118 19/185/118
f 110/97/119 21/187/119 20/186/119
f 114/102/120 22/188/120 21/187/120
f 118/108/121 23/189/121 22/188/121
f 122/113/122 24/190/122 23/189/122
f 126/118/123 25/191/123 24/190/123
f 130/122/124 26/192/124 25/191/124
f 134/128/125 27/193/125 26/192/125
f 138/133/126 28/194/126 27/193/126
f 142/137/127 29/195/127 28/194/127
f 146/142/128 30/196/128 29/195/128
f 150/147/129 31/197/129 30/196/129
f 154/153/130 32/168/130 31/197/130
f 162/198/98 163/199/98 161/200/98
f 168/201/131 171/199/131 167/199/131
f 166/198/132 172/201/132 168/201/132
f 165/200/133 170/198/133 166/198/133
f 32/3/1 1/202/1 2/203/1
f 2/203/1 3/204/1 4/205/1
f 4/205/1 5/206/1 6/207/1
f 6/207/1 7/208/1 8/209/1
f 8/209/1 9/210/1 10/211/1
f 10/211/1 11/212/1 12/213/1
f 12/213/1 13/214/1 14/215/1
f 14/215/1 15/216/1 16/1/1
f 16/1/1 17/217/1 18/218/1
f 18/218/1 19/219/1 20/220/1
f 20/220/1 21/221/1 22/222/1
f 22/222/1 23/223/1 24/2/1
f 24/2/1 25/224/1 26/225/1
f 26/225/1 27/226/1 28/227/1
f 28/227/1 29/228/1 30/229/1
f 30/229/1 31/230/1 32/3/1
f 32/3/1 2/203/1 4/205/1
f 4/205/1 6/207/1 8/209/1
f 8/209/1 10/211/1 12/213/1
f 12/213/1 14/215/1 16/1/1
f 16/1/1 18/218/1 20/220/1
f 20/220/1 22/222/1 24/2/1
f 24/2/1 26/225/1 28/227/1
f 28/227/1 30/229/1 32/3/1
f 32/3/1 4/205/1 8/209/1
f 8/209/1 12/213/1 16/1/1
f 16/1/1 20/220/1 24/2/1
f 24/2/1 28/227/1 32/3/1
f 32/3/1 8/209/1 16/1/1
f 34/4/2 36/231/2 40/5/2
f 36/7/3 35/164/3 39/8/3
f 39/8/4 35/164/4 33/10/4
f 42/12/5 38/6/5 40/5/5
f 44/14/6 40/9/6 39/8/6
f 43/15/7 39/8/7 37/11/7
f 46/17/8 42/12/8 44/13/8
f 48/19/9 44/14/9 43/15/9
f 43/15/10 41/16/10 45/21/10
f 50/22/11 46/17/11 48/18/11
f 48/19/12 47/20/12 51/24/12
f 47/20/13 45/21/13 49/26/13
f 50/22/14 52/23/14 56/27/14
f 56/29/15 52/25/15 51/24/15
f 55/30/16 51/24/16 49/26/16
f 54/28/17 56/27/17 60/32/17
f 60/34/18 56/29/18 55/30/18
f 59/35/19 55/30/19 53/31/19
f 58/33/20 60/32/20 64/37/20
f 60/34/21 59/35/21 63/39/21
f 59/35/22 57/36/22 61/41/22
f 66/42/23 62/38/23 64/37/23
f 64/40/24 63/39/24 67/44/24
f 67/44/25 63/39/25 61/41/25
f 66/42/26 68/43/26 72/47/26
f 72/49/27 68/45/27 67/44/27
f 67/44/28 65/46/28 69/51/28
f 70/48/29 72/47/29 76/52/29
f 72/49/30 71/50/30 75/54/30
f 75/54/31 71/50/31 69/51/31
f 78/57/32 74/53/32 76/52/32
f 80/59/33 76/55/33 75/54/33
f 75/54/34 73/56/34 77/61/34
f 82/62/35 78/57/35 80/58/35
f 80/59/36 79/60/36 83/64/36
f 79/60/37 77/61/37 81/66/37
f 86/67/38 82/62/38 84/63/38
f 88/69/39 84/65/39 83/64/39
f 87/70/40 83/64/40 81/66/40
f 86/67/41 88/68/41 92/72/41
f 88/69/42 87/70/42 91/74/42
f 91/74/43 87/70/43 85/71/43
f 90/73/44 92/72/44 96/77/44
f 96/79/45 92/75/45 91/74/45
f 91/74/46 89/76/46 93/81/46
f 94/78/47 96/77/47 100/82/47
f 96/79/48 95/80/48 99/84/48
f 95/80/49 93/81/49 97/86/49
f 98/83/50 100/82/50 104/87/50
f 100/85/51 99/84/51 103/89/51
f 103/89/52 99/84/52 97/86/52
f 106/92/53 102/88/53 104/87/53
f 108/94/54 104/90/54 103/89/54
f 107/95/55 103/89/55 101/91/55
f 110/97/56 106/92/56 108/93/56
f 112/99/57 108/94/57 107/95/57
f 107/95/58 105/96/58 109/101/58
f 114/102/59 110/97/59 112/98/59
f 112/99/60 111/100/60 115/104/60
f 111/100/61 109/101/61 113/106/61
f 114/102/62 116/103/62 120/107/62
f 120/109/63 116/105/63 115/104/63
f 119/110/64 115/104/64 113/106/64
f 118/108/65 120/107/65 124/112/65
f 124/114/66 120/109/66 119/110/66
f 123/115/67 119/110/67 117/111/67
f 122/113/68 124/112/68 128/117/68
f 124/114/69 123/115/69 127/119/69
f 123/115/70 121/116/70 125/121/70
f 130/122/71 126/118/71 128/117/71
f 128/120/72 127/119/72 131/124/72
f 131/124/73 127/119/73 125/121/73
f 130/122/74 132/123/74 136/127/74
f 136/129/75 132/125/75 131/124/75
f 131/124/76 129/126/76 133/131/76
f 134/128/77 136/127/77 140/132/77
f 136/129/78 135/130/78 139/134/78
f 139/134/79 135/130/79 133/131/79
f 142/137/80 138/133/80 140/132/80
f 144/139/81 140/135/81 139/134/81
f 139/134/82 137/136/82 141/141/82
f 146/142/83 142/137/83 144/138/83
f 144/139/84 143/140/84 147/144/84
f 143/140/85 141/141/85 145/146/85
f 150/147/86 146/142/86 148/143/86
f 152/149/87 148/145/87 147/144/87
f 151/150/88 147/144/88 145/146/88
f 150/147/89 152/148/89 156/152/89
f 152/149/90 151/150/90 155/154/90
f 155/154/91 151/150/91 149/151/91
f 154/153/92 156/152/92 160/157/92
f 160/159/93 156/155/93 155/154/93
f 155/154/94 153/156/94 157/161/94
f 158/158/95 160/157/95 36/162/95
f 160/159/96 159/160/96 35/164/96
f 159/160/97 157/161/97 33/10/97
f 41/16/98 37/11/98 33/10/98
f 33/10/98 157/161/98 153/156/98
f 153/156/98 149/151/98 145/146/98
f 145/146/98 141/141/98 137/136/98
f 137/136/98 133/131/98 129/126/98
f 129/126/98 125/121/98 121/116/98
f 121/116/98 117/111/98 113/106/98
f 113/106/98 109/101/98 105/96/98
f 105/96/98 101/91/98 97/86/98
f 97/86/98 93/81/98 89/76/98
f 89/76/98 85/71/98 81/66/98
f 81/66/98 77/61/98 73/56/98
f 73/56/98 69/51/98 65/46/98
f 65/46/98 61/41/98 57/36/98
f 57/36/98 53/31/98 49/26/98
f 49/26/98 45/21/98 41/16/98
f 41/16/98 33/10/98 153/156/98
f 153/156/98 145/146/98 137/136/98
f 137/136/98 129/126/98 121/116/98
f 121/116/98 113/106/98 105/96/98
f 105/96/98 97/86/98 89/76/98
f 89/76/98 81/66/98 73/56/98
f 73/56/98 65/46/98 57/36/98
f 57/36/98 49/26/98 41/16/98
f 41/16/98 153/156/98 137/136/98
f 137/136/98 121/116/98 105/96/98
f 105/96/98 89/76/98 73/56/98
f 73/56/98 57/36/98 41/16/98
f 41/16/98 137/136/98 105/96/98
f 34/4/99 38/6/99 2/165/99
f 158/158/100 34/163/100 1/167/100
f 38/6/101 42/12/101 3/169/101
f 42/12/102 46/17/102 4/170/102
f 46/17/103 50/22/103 5/171/103
f 50/22/104 54/28/104 6/172/104
f 54/28/105 58/33/105 7/173/105
f 58/33/106 62/38/106 8/174/106
f 62/38/107 66/42/107 9/175/107
f 66/42/108 70/48/108 10/176/108
f 70/48/109 74/53/109 11/177/109
f 74/53/110 78/57/110 12/178/110
f 78/57/111 82/62/111 13/179/111
f 82/62/112 86/67/112 14/180/112
f 86/67/113 90/73/113 15/181/113
f 90/73/114 94/78/114 16/182/114
f 94/78/115 98/83/115 17/183/115
f 98/83/116 102/88/116 18/184/116
f 102/88/117 106/92/117 19/185/117
f 106/92/118 110/97/118 20/186/118
f 110/97/119 114/102/119 21/187/119
f 114/102/120 118/108/120 22/188/120
f 118/108/121 122/113/121 23/189/121
f 122/113/122 126/118/122 24/190/122
f 126/118/123 130/122/123 25/191/123
f 130/122/124 134/128/124 26/192/124
f 134/128/125 138/133/125 27/193/125
f 138/133/126 142/137/126 28/194/126
f 142/137/127 146/142/127 29/195/127
f 146/142/128 150/147/128 30/196/128
f 150/147/129 154/153/129 31/197/129
f 154/153/130 158/158/130 32/168/130
f 162/198/98 164/201/98 163/199/98
f 168/201/131 172/201/131 171/199/131
f 166/198/132 170/198/132 172/201/132
f 165/200/133 169/200/133 170/198/133
o Cylinder.001
v -67.076149 0.000005 67.076149
v 67.076149 0.000005 67.076149
v -67.076149 -0.000005 -67.076149
v 67.076149 -0.000005 -67.076149
vn -0.0000 1.0000 -0.0000
vt 1.000000 0.000000
vt 0.000000 1.000000
vt 0.000000 0.000000
vt 1.000000 1.000000
s 1
f 174/232/134 175/233/134 173/234/134
f 174/232/134 176/235/134 175/233/134
