# Blender 5.0.0
# www.blender.org
mtllib track.mtl
o Plane.001
v -1.100000 -1.100000 0.000000
v 1.100000 -1.100000 0.000000
v -1.100000 1.100000 -0.000000
v 1.100000 1.100000 -0.000000
v -1.100000 1.100000 0.047378
v -1.100000 -1.100000 0.047378
v 1.100000 -1.100000 0.047378
v 1.100000 1.100000 0.047378
v -0.990000 0.990000 0.047378
v -0.990000 -0.990000 0.047378
v 0.990000 -0.990000 0.047378
v 0.990000 0.990000 0.047378
v -0.990000 -1.100000 0.047378
v -0.990000 -1.100000 0.000000
v 0.990000 -1.100000 0.047378
v 0.990000 -1.100000 0.000000
v 0.990000 -10.700001 0.000001
v 1.100000 -10.700001 0.000001
v 0.990000 -10.700001 0.047379
v 1.100000 -10.700001 0.047379
v -1.100000 -10.700001 0.047379
v -1.100000 -10.700001 0.000001
v -0.990000 -10.700001 0.047379
v -0.990000 -10.700001 0.000001
vn 1.0000 -0.0000 -0.0000
vn -1.0000 -0.0000 -0.0000
vn -0.0000 1.0000 -0.0000
vn -0.0000 -0.0000 1.0000
vn -0.0000 -1.0000 -0.0000
vt 1.000000 1.000000
vt 1.000000 0.000000
vt 0.000000 0.000000
vt 0.000000 1.000000
vt 0.050000 0.000000
vt 0.950000 0.000000
s 1
f 4/1/1 7/2/1 2/2/1
f 1/3/2 5/4/2 3/4/2
f 3/4/3 8/1/3 4/1/3
f 6/3/4 13/5/4 10/3/4
f 8/1/4 11/2/4 7/2/4
f 6/3/4 9/4/4 5/4/4
f 5/4/4 12/1/4 8/1/4
f 24/5/5 21/3/5 22/3/5
f 13/5/4 11/2/4 10/3/4
f 14/5/5 15/6/5 13/5/5
f 11/2/4 15/6/4 7/2/4
f 15/6/4 20/2/4 7/2/4
f 17/6/5 20/2/5 19/6/5
f 7/2/1 18/2/1 2/2/1
f 6/3/4 23/5/4 13/5/4
f 16/6/2 19/6/2 15/6/2
f 13/5/1 24/5/1 14/5/1
f 1/3/2 21/3/2 6/3/2
f 4/1/1 8/1/1 7/2/1
f 1/3/2 6/3/2 5/4/2
f 3/4/3 5/4/3 8/1/3
f 8/1/4 12/1/4 11/2/4
f 6/3/4 10/3/4 9/4/4
f 5/4/4 9/4/4 12/1/4
f 24/5/5 23/5/5 21/3/5
f 13/5/4 15/6/4 11/2/4
f 14/5/5 16/6/5 15/6/5
f 15/6/4 19/6/4 20/2/4
f 17/6/5 18/2/5 20/2/5
f 7/2/1 20/2/1 18/2/1
f 6/3/4 21/3/4 23/5/4
f 16/6/2 17/6/2 19/6/2
f 13/5/1 23/5/1 24/5/1
f 1/3/2 22/3/2 21/3/2
