# Blender 4.5.4 LTS
# www.blender.org
mtllib stagev0.mtl
o Cylinder
v 0.000000 -0.110631 -13.860001
v 2.703952 -0.110631 -13.593685
v 5.303993 -0.110631 -12.804971
v 7.700204 -0.110631 -11.524170
v 9.800501 -0.110631 -9.800501
v 11.524170 -0.110631 -7.700204
v 12.804971 -0.110631 -5.303993
v 13.593685 -0.110631 -2.703952
v 13.860001 -0.110631 0.000000
v 13.593685 -0.110631 2.703952
v 12.804971 -0.110631 5.303993
v 11.524170 -0.110631 7.700204
v 9.800501 -0.110631 9.800501
v 7.700204 -0.110631 11.524170
v 5.303993 -0.110631 12.804971
v 2.703952 -0.110631 13.593685
v 0.000000 -0.110631 13.860001
v -2.703952 -0.110631 13.593685
v -5.303993 -0.110631 12.804971
v -7.700204 -0.110631 11.524170
v -9.800501 -0.110631 9.800501
v -11.524170 -0.110631 7.700204
v -12.804971 -0.110631 5.303993
v -13.593685 -0.110631 2.703952
v -13.860001 -0.110631 0.000000
v -13.593685 -0.110631 -2.703952
v -12.804971 -0.110631 -5.303993
v -11.524170 -0.110631 -7.700204
v -9.800501 -0.110631 -9.800501
v -7.700204 -0.110631 -11.524170
v -5.303993 -0.110631 -12.804971
v -2.703952 -0.110631 -13.593685
v 0.000000 5.654630 -13.091753
v 0.000000 4.890081 -13.860001
v 0.000000 5.552200 -13.475876
v 0.000000 5.272356 -13.757074
v 2.554074 5.654630 -12.840199
v 2.703952 4.890081 -13.593685
v 2.629013 5.552200 -13.216942
v 2.683872 5.272356 -13.492738
v 5.009998 5.654630 -12.095201
v 5.303993 4.890081 -12.804971
v 5.156996 5.552200 -12.450087
v 5.264606 5.272356 -12.709881
v 7.273386 5.654630 -10.885396
v 7.700204 4.890081 -11.524170
v 7.486795 5.552200 -11.204782
v 7.643021 5.272356 -11.438589
v 9.257267 5.654630 -9.257267
v 9.800501 4.890081 -9.800501
v 9.528884 5.552200 -9.528884
v 9.727722 5.272356 -9.727722
v 10.885396 5.654630 -7.273386
v 11.524170 4.890081 -7.700204
v 11.204782 5.552200 -7.486795
v 11.438589 5.272356 -7.643021
v 12.095201 5.654630 -5.009998
v 12.804971 4.890081 -5.303993
v 12.450087 5.552200 -5.156996
v 12.709881 5.272356 -5.264606
v 12.840199 5.654630 -2.554074
v 13.593685 4.890081 -2.703952
v 13.216942 5.552200 -2.629013
v 13.492738 5.272356 -2.683872
v 13.091753 5.654630 0.000000
v 13.860001 4.890081 0.000000
v 13.475876 5.552200 0.000000
v 13.757074 5.272356 0.000000
v 12.840199 5.654630 2.554074
v 13.593685 4.890081 2.703952
v 13.216942 5.552200 2.629013
v 13.492738 5.272356 2.683872
v 12.095201 5.654630 5.009998
v 12.804971 4.890081 5.303993
v 12.450087 5.552200 5.156996
v 12.709881 5.272356 5.264606
v 10.885396 5.654630 7.273386
v 11.524170 4.890081 7.700204
v 11.204782 5.552200 7.486795
v 11.438589 5.272356 7.643021
v 9.257267 5.654630 9.257267
v 9.800501 4.890081 9.800501
v 9.528884 5.552200 9.528884
v 9.727722 5.272356 9.727722
v 7.273386 5.654630 10.885396
v 7.700204 4.890081 11.524170
v 7.486795 5.552200 11.204782
v 7.643021 5.272356 11.438589
v 5.009998 5.654630 12.095201
v 5.303993 4.890081 12.804971
v 5.156996 5.552200 12.450087
v 5.264606 5.272356 12.709881
v 2.554074 5.654630 12.840199
v 2.703952 4.890081 13.593685
v 2.629013 5.552200 13.216942
v 2.683872 5.272356 13.492738
v 0.000000 5.654630 13.091753
v 0.000000 4.890081 13.860001
v 0.000000 5.552200 13.475876
v 0.000000 5.272356 13.757074
v -2.554074 5.654630 12.840199
v -2.703952 4.890081 13.593685
v -2.629013 5.552200 13.216942
v -2.683872 5.272356 13.492738
v -5.009998 5.654630 12.095201
v -5.303993 4.890081 12.804971
v -5.156996 5.552200 12.450087
v -5.264606 5.272356 12.709881
v -7.273386 5.654630 10.885396
v -7.700204 4.890081 11.524170
v -7.486795 5.552200 11.204782
v -7.643021 5.272356 11.438589
v -9.257267 5.654630 9.257267
v -9.800501 4.890081 9.800501
v -9.528884 5.552200 9.528884
v -9.727722 5.272356 9.727722
v -10.885396 5.654630 7.273386
v -11.524170 4.890081 7.700204
v -11.204782 5.552200 7.486795
v -11.438589 5.272356 7.643021
v -12.095201 5.654630 5.009998
v -12.804971 4.890081 5.303993
v -12.450087 5.552200 5.156996
v -12.709881 5.272356 5.264606
v -12.840199 5.654630 2.554074
v -13.593685 4.890081 2.703952
v -13.216942 5.552200 2.629013
v -13.492738 5.272356 2.683872
v -13.091753 5.654630 0.000000
v -13.860001 4.890081 0.000000
v -13.475876 5.552200 0.000000
v -13.757074 5.272356 0.000000
v -12.840199 5.654630 -2.554074
v -13.593685 4.890081 -2.703952
v -13.216942 5.552200 -2.629013
v -13.492738 5.272356 -2.683872
v -12.095201 5.654630 -5.009998
v -12.804971 4.890081 -5.303993
v -12.450087 5.552200 -5.156996
v -12.709881 5.272356 -5.264606
v -10.885396 5.654630 -7.273386
v -11.524170 4.890081 -7.700204
v -11.204782 5.552200 -7.486795
v -11.438589 5.272356 -7.643021
v -9.257267 5.654630 -9.257267
v -9.800501 4.890081 -9.800501
v -9.528884 5.552200 -9.528884
v -9.727722 5.272356 -9.727722
v -7.273386 5.654630 -10.885396
v -7.700204 4.890081 -11.524170
v -7.486795 5.552200 -11.204782
v -7.643021 5.272356 -11.438589
v -5.009998 5.654630 -12.095201
v -5.303993 4.890081 -12.804971
v -5.156996 5.552200 -12.450087
v -5.264606 5.272356 -12.709881
v -2.554074 5.654630 -12.840199
v -2.703952 4.890081 -13.593685
v -2.629013 5.552200 -13.216942
v -2.683872 5.272356 -13.492738
v -1.000000 0.000000 1.000000
v 1.000000 0.000000 1.000000
v -1.000000 0.000000 -1.000000
v 1.000000 0.000000 -1.000000
v -67.076149 0.000000 67.076149
v 67.076149 0.000000 67.076149
v -67.076149 0.000000 -67.076149
v 67.076149 0.000000 -67.076149
v 12.316422 19.958122 5.095673
v -67.076149 55.805557 67.076149
v 67.076149 55.805557 67.076149
v -67.076149 55.805557 -67.076149
v 67.076149 55.805557 -67.076149
vn -0.0000 -1.0000 -0.0000
vn 0.0947 0.2588 -0.9613
vn 0.0693 0.7071 -0.7037
vn 0.0254 0.9659 -0.2576
vn 0.2804 0.2588 -0.9243
vn 0.2053 0.7071 -0.6767
vn 0.0751 0.9659 -0.2477
vn 0.4553 0.2588 -0.8519
vn 0.3333 0.7071 -0.6236
vn 0.1220 0.9659 -0.2283
vn 0.6128 0.2588 -0.7467
vn 0.4486 0.7071 -0.5466
vn 0.1642 0.9659 -0.2001
vn 0.7467 0.2588 -0.6128
vn 0.5466 0.7071 -0.4486
vn 0.2001 0.9659 -0.1642
vn 0.8519 0.2588 -0.4553
vn 0.6236 0.7071 -0.3333
vn 0.2283 0.9659 -0.1220
vn 0.9243 0.2588 -0.2804
vn 0.6767 0.7071 -0.2053
vn 0.2477 0.9659 -0.0751
vn 0.9613 0.2588 -0.0947
vn 0.7037 0.7071 -0.0693
vn 0.2576 0.9659 -0.0254
vn 0.9613 0.2588 0.0947
vn 0.7037 0.7071 0.0693
vn 0.2576 0.9659 0.0254
vn 0.9243 0.2588 0.2804
vn 0.6767 0.7071 0.2053
vn 0.2477 0.9659 0.0751
vn 0.8519 0.2588 0.4553
vn 0.6236 0.7071 0.3333
vn 0.2283 0.9659 0.1220
vn 0.7467 0.2588 0.6128
vn 0.5466 0.7071 0.4486
vn 0.2001 0.9659 0.1642
vn 0.6128 0.2588 0.7467
vn 0.4486 0.7071 0.5466
vn 0.1642 0.9659 0.2001
vn 0.4553 0.2588 0.8519
vn 0.3333 0.7071 0.6236
vn 0.1220 0.9659 0.2283
vn 0.2804 0.2588 0.9243
vn 0.2053 0.7071 0.6767
vn 0.0751 0.9659 0.2477
vn 0.0947 0.2588 0.9613
vn 0.0693 0.7071 0.7037
vn 0.0254 0.9659 0.2576
vn -0.0947 0.2588 0.9613
vn -0.0693 0.7071 0.7037
vn -0.0254 0.9659 0.2576
vn -0.2804 0.2588 0.9243
vn -0.2053 0.7071 0.6767
vn -0.0751 0.9659 0.2477
vn -0.4553 0.2588 0.8519
vn -0.3333 0.7071 0.6236
vn -0.1220 0.9659 0.2283
vn -0.6128 0.2588 0.7467
vn -0.4486 0.7071 0.5466
vn -0.1642 0.9659 0.2001
vn -0.7467 0.2588 0.6128
vn -0.5466 0.7071 0.4486
vn -0.2001 0.9659 0.1642
vn -0.8519 0.2588 0.4553
vn -0.6236 0.7071 0.3333
vn -0.2283 0.9659 0.1220
vn -0.9243 0.2588 0.2804
vn -0.6767 0.7071 0.2053
vn -0.2477 0.9659 0.0751
vn -0.9613 0.2588 0.0947
vn -0.7037 0.7071 0.0693
vn -0.2576 0.9659 0.0254
vn -0.9613 0.2588 -0.0947
vn -0.7037 0.7071 -0.0693
vn -0.2576 0.9659 -0.0254
vn -0.9243 0.2588 -0.2804
vn -0.6767 0.7071 -0.2053
vn -0.2477 0.9659 -0.0751
vn -0.8519 0.2588 -0.4553
vn -0.6236 0.7071 -0.3333
vn -0.2283 0.9659 -0.1220
vn -0.7467 0.2588 -0.6128
vn -0.5466 0.7071 -0.4486
vn -0.2001 0.9659 -0.1642
vn -0.6128 0.2588 -0.7467
vn -0.4486 0.7071 -0.5466
vn -0.1642 0.9659 -0.2001
vn -0.4553 0.2588 -0.8519
vn -0.3333 0.7071 -0.6236
vn -0.1220 0.9659 -0.2283
vn -0.2804 0.2588 -0.9243
vn -0.2053 0.7071 -0.6767
vn -0.0751 0.9659 -0.2477
vn -0.0947 0.2588 -0.9613
vn -0.0693 0.7071 -0.7037
vn -0.0254 0.9659 -0.2576
vn -0.0000 1.0000 -0.0000
vn 0.0980 -0.0000 -0.9952
vn -0.0980 -0.0000 -0.9952
vn 0.2903 -0.0000 -0.9569
vn 0.4714 -0.0000 -0.8819
vn 0.6344 -0.0000 -0.7730
vn 0.7730 -0.0000 -0.6344
vn 0.8819 -0.0000 -0.4714
vn 0.9569 -0.0000 -0.2903
vn 0.9952 -0.0000 -0.0980
vn 0.9952 -0.0000 0.0980
vn 0.9569 -0.0000 0.2903
vn 0.8819 -0.0000 0.4714
vn 0.7730 -0.0000 0.6344
vn 0.6344 -0.0000 0.7730
vn 0.4714 -0.0000 0.8819
vn 0.2903 -0.0000 0.9569
vn 0.0980 -0.0000 0.9952
vn -0.0980 -0.0000 0.9952
vn -0.2903 -0.0000 0.9569
vn -0.4714 -0.0000 0.8819
vn -0.6344 -0.0000 0.7730
vn -0.7730 -0.0000 0.6344
vn -0.8819 -0.0000 0.4714
vn -0.9569 -0.0000 0.2903
vn -0.9952 -0.0000 0.0980
vn -0.9952 -0.0000 -0.0980
vn -0.9569 -0.0000 -0.2903
vn -0.8819 -0.0000 -0.4714
vn -0.7730 -0.0000 -0.6344
vn -0.6344 -0.0000 -0.7730
vn -0.4714 -0.0000 -0.8819
vn -0.2903 -0.0000 -0.9569
vn -0.0000 -0.0000 1.0000
vn -1.0000 -0.0000 -0.0000
vn -0.0000 -0.0000 -1.0000
vt 0.750000 0.490000
vt 0.796822 0.485388
vt 0.841844 0.471731
vt 0.883337 0.449553
vt 0.919706 0.419706
vt 0.949553 0.383337
vt 0.971731 0.341844
vt 0.985388 0.296822
vt 0.990000 0.250000
vt 0.985388 0.203178
vt 0.971731 0.158156
vt 0.949553 0.116663
vt 0.919706 0.080294
vt 0.883337 0.050447
vt 0.841844 0.028269
vt 0.796822 0.014612
vt 0.750000 0.010000
vt 0.703178 0.014612
vt 0.658156 0.028269
vt 0.616663 0.050447
vt 0.580294 0.080294
vt 0.550447 0.116663
vt 0.528269 0.158156
vt 0.514612 0.203178
vt 0.510000 0.250000
vt 0.514612 0.296822
vt 0.528269 0.341844
vt 0.550447 0.383337
vt 0.580294 0.419706
vt 0.616663 0.449553
vt 0.658156 0.471731
vt 0.703178 0.485388
vt 0.968750 0.933693
vt 1.000000 0.933694
vt 0.999884 1.000000
vt 0.968750 1.000000
vt 0.296818 0.485372
vt 0.250000 0.489983
vt 0.250000 0.483349
vt 0.295524 0.478865
vt 0.250000 0.476697
vt 0.294226 0.472341
vt 0.937500 0.933693
vt 0.937500 1.000000
vt 0.341837 0.471715
vt 0.339299 0.465586
vt 0.336753 0.459441
vt 0.906250 0.933694
vt 0.906250 1.000000
vt 0.383327 0.449538
vt 0.379641 0.444022
vt 0.375946 0.438492
vt 0.875000 0.933694
vt 0.875000 1.000000
vt 0.419694 0.419694
vt 0.415002 0.415002
vt 0.410299 0.410299
vt 0.843750 0.933693
vt 0.843750 1.000000
vt 0.449538 0.383327
vt 0.444022 0.379641
vt 0.438492 0.375946
vt 0.812500 0.933694
vt 0.812500 1.000000
vt 0.471715 0.341837
vt 0.465586 0.339299
vt 0.459441 0.336753
vt 0.781250 0.933694
vt 0.781250 1.000000
vt 0.485372 0.296818
vt 0.478865 0.295524
vt 0.472341 0.294226
vt 0.750000 0.933693
vt 0.750000 1.000000
vt 0.489983 0.250000
vt 0.483349 0.250000
vt 0.476697 0.250000
vt 0.718750 0.933694
vt 0.718750 1.000000
vt 0.485372 0.203182
vt 0.478865 0.204476
vt 0.472341 0.205774
vt 0.687500 0.933694
vt 0.687500 1.000000
vt 0.471715 0.158163
vt 0.465586 0.160701
vt 0.459441 0.163247
vt 0.656250 0.933693
vt 0.656250 1.000000
vt 0.449538 0.116673
vt 0.444022 0.120359
vt 0.438492 0.124054
vt 0.625000 0.933694
vt 0.625000 1.000000
vt 0.419694 0.080307
vt 0.415002 0.084998
vt 0.410299 0.089701
vt 0.593750 0.933694
vt 0.593750 1.000000
vt 0.383327 0.050462
vt 0.379641 0.055978
vt 0.375946 0.061508
vt 0.562500 0.933694
vt 0.562500 1.000000
vt 0.341837 0.028285
vt 0.339299 0.034414
vt 0.336753 0.040559
vt 0.531250 0.933694
vt 0.531250 1.000000
vt 0.296818 0.014628
vt 0.295524 0.021135
vt 0.294226 0.027659
vt 0.500000 0.933694
vt 0.500000 1.000000
vt 0.250000 0.010017
vt 0.250000 0.016652
vt 0.250000 0.023303
vt 0.468750 0.933694
vt 0.468750 1.000000
vt 0.203182 0.014628
vt 0.204476 0.021135
vt 0.205774 0.027659
vt 0.437500 0.933693
vt 0.437500 1.000000
vt 0.158163 0.028285
vt 0.160701 0.034414
vt 0.163247 0.040559
vt 0.406250 0.933694
vt 0.406250 1.000000
vt 0.116673 0.050462
vt 0.120359 0.055978
vt 0.124054 0.061508
vt 0.375000 0.933694
vt 0.375000 1.000000
vt 0.080306 0.080306
vt 0.084998 0.084998
vt 0.089701 0.089701
vt 0.343750 0.933693
vt 0.343750 1.000000
vt 0.050462 0.116673
vt 0.055978 0.120359
vt 0.061508 0.124054
vt 0.312500 0.933694
vt 0.312500 1.000000
vt 0.028285 0.158163
vt 0.034414 0.160701
vt 0.040559 0.163247
vt 0.281250 0.933694
vt 0.281250 1.000000
vt 0.014628 0.203182
vt 0.021135 0.204476
vt 0.027659 0.205774
vt 0.250000 0.933693
vt 0.250000 1.000000
vt 0.010017 0.250000
vt 0.016652 0.250000
vt 0.023303 0.250000
vt 0.218750 0.933694
vt 0.218750 1.000000
vt 0.014628 0.296818
vt 0.021135 0.295524
vt 0.027659 0.294226
vt 0.187500 0.933694
vt 0.187500 1.000000
vt 0.028285 0.341837
vt 0.034414 0.339299
vt 0.040559 0.336753
vt 0.156250 0.933693
vt 0.156250 1.000000
vt 0.050462 0.383327
vt 0.055978 0.379642
vt 0.061508 0.375946
vt 0.125000 0.933694
vt 0.125000 1.000000
vt 0.080306 0.419694
vt 0.084998 0.415002
vt 0.089701 0.410299
vt 0.093750 0.933694
vt 0.093750 1.000000
vt 0.116673 0.449538
vt 0.120359 0.444022
vt 0.124054 0.438492
vt 0.062500 0.933694
vt 0.062500 1.000000
vt 0.158163 0.471715
vt 0.160701 0.465586
vt 0.163247 0.459441
vt 0.031250 0.933693
vt 0.031250 1.000000
vt 0.203182 0.485372
vt 0.204476 0.478865
vt 0.205774 0.472341
vt 0.000000 0.933694
vt 0.000116 1.000000
vt 1.000000 0.500000
vt 0.968750 0.500000
vt 0.031250 0.500000
vt 0.000000 0.500000
vt 0.937500 0.500000
vt 0.906250 0.500000
vt 0.875000 0.500000
vt 0.843750 0.500000
vt 0.812500 0.500000
vt 0.781250 0.500000
vt 0.750000 0.500000
vt 0.718750 0.500000
vt 0.687500 0.500000
vt 0.656250 0.500000
vt 0.625000 0.500000
vt 0.593750 0.500000
vt 0.562500 0.500000
vt 0.531250 0.500000
vt 0.500000 0.500000
vt 0.468750 0.500000
vt 0.437500 0.500000
vt 0.406250 0.500000
vt 0.375000 0.500000
vt 0.343750 0.500000
vt 0.312500 0.500000
vt 0.281250 0.500000
vt 0.250000 0.500000
vt 0.218750 0.500000
vt 0.187500 0.500000
vt 0.156250 0.500000
vt 0.125000 0.500000
vt 0.093750 0.500000
vt 0.062500 0.500000
vt 0.000000 0.000000
vt 1.000000 0.000000
vt 1.000000 1.000000
vt 0.000000 1.000000
s 0
f 1/1/1 2/2/1 3/3/1 4/4/1 5/5/1 6/6/1 7/7/1 8/8/1 9/9/1 10/10/1 11/11/1 12/12/1 13/13/1 14/14/1 15/15/1 16/16/1 17/17/1 18/18/1 19/19/1 20/20/1 21/21/1 22/22/1 23/23/1 24/24/1 25/25/1 26/26/1 27/27/1 28/28/1 29/29/1 30/30/1 31/31/1 32/32/1
f 38/33/2 34/34/2 36/35/2 40/36/2
f 40/37/3 36/38/3 35/39/3 39/40/3
f 39/40/4 35/39/4 33/41/4 37/42/4
f 42/43/5 38/33/5 40/36/5 44/44/5
f 44/45/6 40/37/6 39/40/6 43/46/6
f 43/46/7 39/40/7 37/42/7 41/47/7
f 46/48/8 42/43/8 44/44/8 48/49/8
f 48/50/9 44/45/9 43/46/9 47/51/9
f 47/51/10 43/46/10 41/47/10 45/52/10
f 50/53/11 46/48/11 48/49/11 52/54/11
f 52/55/12 48/50/12 47/51/12 51/56/12
f 51/56/13 47/51/13 45/52/13 49/57/13
f 54/58/14 50/53/14 52/54/14 56/59/14
f 56/60/15 52/55/15 51/56/15 55/61/15
f 55/61/16 51/56/16 49/57/16 53/62/16
f 58/63/17 54/58/17 56/59/17 60/64/17
f 60/65/18 56/60/18 55/61/18 59/66/18
f 59/66/19 55/61/19 53/62/19 57/67/19
f 62/68/20 58/63/20 60/64/20 64/69/20
f 64/70/21 60/65/21 59/66/21 63/71/21
f 63/71/22 59/66/22 57/67/22 61/72/22
f 66/73/23 62/68/23 64/69/23 68/74/23
f 68/75/24 64/70/24 63/71/24 67/76/24
f 67/76/25 63/71/25 61/72/25 65/77/25
f 70/78/26 66/73/26 68/74/26 72/79/26
f 72/80/27 68/75/27 67/76/27 71/81/27
f 71/81/28 67/76/28 65/77/28 69/82/28
f 74/83/29 70/78/29 72/79/29 76/84/29
f 76/85/30 72/80/30 71/81/30 75/86/30
f 75/86/31 71/81/31 69/82/31 73/87/31
f 78/88/32 74/83/32 76/84/32 80/89/32
f 80/90/33 76/85/33 75/86/33 79/91/33
f 79/91/34 75/86/34 73/87/34 77/92/34
f 82/93/35 78/88/35 80/89/35 84/94/35
f 84/95/36 80/90/36 79/91/36 83/96/36
f 83/96/37 79/91/37 77/92/37 81/97/37
f 86/98/38 82/93/38 84/94/38 88/99/38
f 88/100/39 84/95/39 83/96/39 87/101/39
f 87/101/40 83/96/40 81/97/40 85/102/40
f 90/103/41 86/98/41 88/99/41 92/104/41
f 92/105/42 88/100/42 87/101/42 91/106/42
f 91/106/43 87/101/43 85/102/43 89/107/43
f 94/108/44 90/103/44 92/104/44 96/109/44
f 96/110/45 92/105/45 91/106/45 95/111/45
f 95/111/46 91/106/46 89/107/46 93/112/46
f 98/113/47 94/108/47 96/109/47 100/114/47
f 100/115/48 96/110/48 95/111/48 99/116/48
f 99/116/49 95/111/49 93/112/49 97/117/49
f 102/118/50 98/113/50 100/114/50 104/119/50
f 104/120/51 100/115/51 99/116/51 103/121/51
f 103/121/52 99/116/52 97/117/52 101/122/52
f 106/123/53 102/118/53 104/119/53 108/124/53
f 108/125/54 104/120/54 103/121/54 107/126/54
f 107/126/55 103/121/55 101/122/55 105/127/55
f 110/128/56 106/123/56 108/124/56 112/129/56
f 112/130/57 108/125/57 107/126/57 111/131/57
f 111/131/58 107/126/58 105/127/58 109/132/58
f 114/133/59 110/128/59 112/129/59 116/134/59
f 116/135/60 112/130/60 111/131/60 115/136/60
f 115/136/61 111/131/61 109/132/61 113/137/61
f 118/138/62 114/133/62 116/134/62 120/139/62
f 120/140/63 116/135/63 115/136/63 119/141/63
f 119/141/64 115/136/64 113/137/64 117/142/64
f 122/143/65 118/138/65 120/139/65 124/144/65
f 124/145/66 120/140/66 119/141/66 123/146/66
f 123/146/67 119/141/67 117/142/67 121/147/67
f 126/148/68 122/143/68 124/144/68 128/149/68
f 128/150/69 124/145/69 123/146/69 127/151/69
f 127/151/70 123/146/70 121/147/70 125/152/70
f 130/153/71 126/148/71 128/149/71 132/154/71
f 132/155/72 128/150/72 127/151/72 131/156/72
f 131/156/73 127/151/73 125/152/73 129/157/73
f 134/158/74 130/153/74 132/154/74 136/159/74
f 136/160/75 132/155/75 131/156/75 135/161/75
f 135/161/76 131/156/76 129/157/76 133/162/76
f 138/163/77 134/158/77 136/159/77 140/164/77
f 140/165/78 136/160/78 135/161/78 139/166/78
f 139/166/79 135/161/79 133/162/79 137/167/79
f 142/168/80 138/163/80 140/164/80 144/169/80
f 144/170/81 140/165/81 139/166/81 143/171/81
f 143/171/82 139/166/82 137/167/82 141/172/82
f 146/173/83 142/168/83 144/169/83 148/174/83
f 148/175/84 144/170/84 143/171/84 147/176/84
f 147/176/85 143/171/85 141/172/85 145/177/85
f 150/178/86 146/173/86 148/174/86 152/179/86
f 152/180/87 148/175/87 147/176/87 151/181/87
f 151/181/88 147/176/88 145/177/88 149/182/88
f 154/183/89 150/178/89 152/179/89 156/184/89
f 156/185/90 152/180/90 151/181/90 155/186/90
f 155/186/91 151/181/91 149/182/91 153/187/91
f 158/188/92 154/183/92 156/184/92 160/189/92
f 160/190/93 156/185/93 155/186/93 159/191/93
f 159/191/94 155/186/94 153/187/94 157/192/94
f 34/193/95 158/188/95 160/189/95 36/194/95
f 36/38/96 160/190/96 159/191/96 35/39/96
f 35/39/97 159/191/97 157/192/97 33/41/97
f 37/42/98 33/41/98 157/192/98 153/187/98 149/182/98 145/177/98 141/172/98 137/167/98 133/162/98 129/157/98 125/152/98 121/147/98 117/142/98 113/137/98 109/132/98 105/127/98 101/122/98 97/117/98 93/112/98 89/107/98 85/102/98 81/97/98 77/92/98 73/87/98 69/82/98 65/77/98 61/72/98 57/67/98 53/62/98 49/57/98 45/52/98 41/47/98
f 1/195/99 34/34/99 38/33/99 2/196/99
f 32/197/100 158/188/100 34/193/100 1/198/100
f 2/196/101 38/33/101 42/43/101 3/199/101
f 3/199/102 42/43/102 46/48/102 4/200/102
f 4/200/103 46/48/103 50/53/103 5/201/103
f 5/201/104 50/53/104 54/58/104 6/202/104
f 6/202/105 54/58/105 58/63/105 7/203/105
f 7/203/106 58/63/106 62/68/106 8/204/106
f 8/204/107 62/68/107 66/73/107 9/205/107
f 9/205/108 66/73/108 70/78/108 10/206/108
f 10/206/109 70/78/109 74/83/109 11/207/109
f 11/207/110 74/83/110 78/88/110 12/208/110
f 12/208/111 78/88/111 82/93/111 13/209/111
f 13/209/112 82/93/112 86/98/112 14/210/112
f 14/210/113 86/98/113 90/103/113 15/211/113
f 15/211/114 90/103/114 94/108/114 16/212/114
f 16/212/115 94/108/115 98/113/115 17/213/115
f 17/213/116 98/113/116 102/118/116 18/214/116
f 18/214/117 102/118/117 106/123/117 19/215/117
f 19/215/118 106/123/118 110/128/118 20/216/118
f 20/216/119 110/128/119 114/133/119 21/217/119
f 21/217/120 114/133/120 118/138/120 22/218/120
f 22/218/121 118/138/121 122/143/121 23/219/121
f 23/219/122 122/143/122 126/148/122 24/220/122
f 24/220/123 126/148/123 130/153/123 25/221/123
f 25/221/124 130/153/124 134/158/124 26/222/124
f 26/222/125 134/158/125 138/163/125 27/223/125
f 27/223/126 138/163/126 142/168/126 28/224/126
f 28/224/127 142/168/127 146/173/127 29/225/127
f 29/225/128 146/173/128 150/178/128 30/226/128
f 30/226/129 150/178/129 154/183/129 31/227/129
f 31/227/130 154/183/130 158/188/130 32/197/130
f 161/228/98 162/229/98 164/230/98 163/231/98
f 167/231/131 168/230/131 173/230/131 172/231/131
f 168/230/132 166/229/132 171/229/132 173/230/132
f 166/229/133 165/228/133 170/228/133 171/229/133
o Cylinder.001
v -67.076149 0.000000 67.076149
v 67.076149 0.000000 67.076149
v -67.076149 0.000000 -67.076149
v 67.076149 0.000000 -67.076149
vn -0.0000 1.0000 -0.0000
vt 0.000000 0.000000
vt 1.000000 0.000000
vt 1.000000 1.000000
vt 0.000000 1.000000
s 0
f 174/232/134 175/233/134 177/234/134 176/235/134
